<svg width="775" height="429" viewBox="0 0 775 429" fill="none" xmlns="http://www.w3.org/2000/svg">
<path d="M5.36 180L40.176 0.799988H72.944L113.136 106.528L153.328 0.799988H186.096L220.912 180H181.744L163.056 83.232L126.448 180H99.824L63.216 83.232L44.528 180H5.36ZM233.69 133.536V52H272.09V122.784C272.09 126.795 273.071 130.464 275.034 133.792C276.997 137.035 279.599 139.637 282.842 141.6C286.17 143.477 289.797 144.416 293.722 144.416C297.733 144.416 301.359 143.477 304.602 141.6C307.93 139.637 310.533 137.035 312.41 133.792C314.373 130.464 315.354 126.795 315.354 122.784V52H353.754L353.882 180H315.482L315.354 171.68C311.087 175.349 306.223 178.208 300.762 180.256C295.301 182.304 289.541 183.328 283.482 183.328C274.351 183.328 265.989 181.109 258.394 176.672C250.885 172.149 244.869 166.133 240.346 158.624C235.909 151.115 233.69 142.752 233.69 133.536ZM403.624 182.304C397.139 181.707 390.909 180.299 384.936 178.08C378.963 175.861 373.629 172.832 368.936 168.992C364.243 165.152 360.531 160.459 357.8 154.912L390.056 141.088C390.909 142.027 392.104 143.221 393.64 144.672C395.176 146.037 397.096 147.275 399.4 148.384C401.789 149.493 404.648 150.048 407.976 150.048C410.195 150.048 412.328 149.835 414.376 149.408C416.509 148.896 418.216 148.043 419.496 146.848C420.861 145.653 421.544 143.989 421.544 141.856C421.544 139.467 420.648 137.675 418.856 136.48C417.149 135.2 415.059 134.304 412.584 133.792C410.109 133.195 407.805 132.725 405.672 132.384C398.077 131.189 390.781 128.8 383.784 125.216C376.872 121.547 371.197 116.811 366.76 111.008C362.323 105.12 360.104 98.2507 360.104 90.4C360.104 81.6107 362.365 74.016 366.888 67.616C371.411 61.216 377.299 56.3093 384.552 52.896C391.891 49.3973 399.784 47.648 408.232 47.648C418.216 47.648 427.432 49.696 435.88 53.792C444.413 57.888 451.411 63.776 456.872 71.456L426.664 89.376C425.64 88.096 424.36 86.816 422.824 85.536C421.373 84.1707 419.667 83.0187 417.704 82.08C415.827 81.056 413.779 80.416 411.56 80.16C408.573 79.904 405.885 80.032 403.496 80.544C401.192 80.9707 399.357 81.9093 397.992 83.36C396.627 84.7253 395.944 86.7307 395.944 89.376C395.944 91.8507 397.139 93.6427 399.528 94.752C401.917 95.8613 404.605 96.672 407.592 97.184C410.579 97.696 413.011 98.2507 414.888 98.848C422.227 101.237 429.139 104.352 435.624 108.192C442.109 112.032 447.315 116.683 451.24 122.144C455.251 127.605 457.128 134.005 456.872 141.344C456.872 149.877 454.312 157.387 449.192 163.872C444.072 170.357 437.459 175.264 429.352 178.592C421.245 181.92 412.669 183.157 403.624 182.304ZM461.96 52H500.36V180H461.96V52ZM481.416 38.688C475.869 38.688 471.219 36.8533 467.464 33.184C463.709 29.5147 461.832 24.9493 461.832 19.488C461.832 14.112 463.709 9.58933 467.464 5.92C471.219 2.16533 475.827 0.287994 481.288 0.287994C486.664 0.287994 491.187 2.16533 494.856 5.92C498.611 9.58933 500.488 14.112 500.488 19.488C500.488 24.9493 498.653 29.5147 494.984 33.184C491.4 36.8533 486.877 38.688 481.416 38.688ZM587.37 138.016L621.93 156.704C616.042 164.725 608.661 171.168 599.786 176.032C590.911 180.896 581.226 183.328 570.73 183.328C558.954 183.328 548.202 180.299 538.474 174.24C528.831 168.181 521.109 160.075 515.306 149.92C509.589 139.68 506.73 128.373 506.73 116C506.73 106.613 508.394 97.8667 511.722 89.76C515.05 81.568 519.615 74.4 525.418 68.256C531.306 62.0267 538.133 57.1627 545.898 53.664C553.663 50.1653 561.941 48.416 570.73 48.416C581.226 48.416 590.911 50.848 599.786 55.712C608.661 60.576 616.042 67.104 621.93 75.296L587.37 93.984C585.066 91.68 582.463 89.9307 579.562 88.736C576.746 87.456 573.802 86.816 570.73 86.816C565.866 86.816 561.514 88.1813 557.674 90.912C553.834 93.6427 550.762 97.2267 548.458 101.664C546.239 106.101 545.13 110.88 545.13 116C545.13 121.035 546.239 125.771 548.458 130.208C550.762 134.56 553.834 138.101 557.674 140.832C561.514 143.563 565.866 144.928 570.73 144.928C573.802 144.928 576.746 144.331 579.562 143.136C582.463 141.856 585.066 140.149 587.37 138.016ZM141.04 185.8V224.2H89.84V365H51.44V224.2H0.240001V185.8H141.04ZM226.714 237H265.114V365H226.586L224.794 353.48C221.637 357.917 217.626 361.501 212.762 364.232C207.983 366.963 202.394 368.328 195.994 368.328C186.437 368.328 177.477 366.536 169.114 362.952C160.837 359.368 153.541 354.419 147.226 348.104C140.911 341.704 135.962 334.365 132.378 326.088C128.879 317.725 127.13 308.765 127.13 299.208C127.13 290.077 128.794 281.544 132.122 273.608C135.45 265.672 140.101 258.717 146.074 252.744C152.133 246.685 159.087 241.949 166.938 238.536C174.874 235.123 183.365 233.416 192.41 233.416C199.749 233.416 206.405 234.952 212.378 238.024C218.437 241.011 223.813 244.765 228.506 249.288L226.714 237ZM194.97 331.464C200.261 331.464 205.082 330.099 209.434 327.368C213.786 324.637 217.242 320.968 219.802 316.36C222.362 311.752 223.642 306.632 223.642 301C223.642 295.368 222.362 290.248 219.802 285.64C217.242 281.032 213.786 277.363 209.434 274.632C205.082 271.901 200.261 270.536 194.97 270.536C189.679 270.536 184.858 271.901 180.506 274.632C176.239 277.363 172.826 281.032 170.266 285.64C167.791 290.248 166.554 295.368 166.554 301C166.554 306.632 167.834 311.752 170.394 316.36C172.954 320.968 176.367 324.637 180.634 327.368C184.986 330.099 189.765 331.464 194.97 331.464ZM366.902 237H405.302V366.28C405.302 376.008 403.339 384.712 399.414 392.392C395.574 400.157 390.283 406.771 383.542 412.232C376.801 417.693 369.035 421.832 360.246 424.648C351.542 427.549 342.326 429 332.598 429C323.553 429 314.891 427.251 306.614 423.752C298.337 420.339 290.955 415.56 284.47 409.416C277.985 403.272 272.865 396.147 269.11 388.04L304.182 372.168C305.974 376.008 308.321 379.251 311.222 381.896C314.123 384.627 317.409 386.717 321.078 388.168C324.747 389.619 328.587 390.344 332.598 390.344C337.035 390.344 341.302 389.875 345.398 388.936C349.494 387.997 353.163 386.547 356.406 384.584C359.649 382.621 362.209 380.104 364.086 377.032C365.963 374.045 366.902 370.461 366.902 366.28V353.736C363.062 358.088 358.497 361.629 353.206 364.36C348.001 367.005 341.985 368.328 335.158 368.328C325.857 368.328 317.153 366.579 309.046 363.08C300.939 359.581 293.771 354.76 287.542 348.616C281.398 342.387 276.577 335.219 273.078 327.112C269.579 319.005 267.83 310.301 267.83 301C267.83 291.699 269.579 282.995 273.078 274.888C276.577 266.781 281.398 259.656 287.542 253.512C293.771 247.283 300.939 242.419 309.046 238.92C317.153 235.421 325.857 233.672 335.158 233.672C341.985 233.672 348.001 235.037 353.206 237.768C358.497 240.413 363.062 243.912 366.902 248.264V237ZM335.67 331.464C340.961 331.464 345.782 330.099 350.134 327.368C354.486 324.637 357.942 320.968 360.502 316.36C363.062 311.752 364.342 306.632 364.342 301C364.342 295.368 363.062 290.248 360.502 285.64C357.942 281.032 354.486 277.363 350.134 274.632C345.782 271.901 340.961 270.536 335.67 270.536C330.465 270.536 325.686 271.901 321.334 274.632C317.067 277.363 313.654 281.032 311.094 285.64C308.534 290.248 307.254 295.368 307.254 301C307.254 306.632 308.534 311.752 311.094 316.36C313.654 320.968 317.067 324.637 321.334 327.368C325.686 330.099 330.465 331.464 335.67 331.464ZM510.852 237H549.252V366.28C549.252 376.008 547.289 384.712 543.364 392.392C539.524 400.157 534.233 406.771 527.492 412.232C520.751 417.693 512.985 421.832 504.196 424.648C495.492 427.549 486.276 429 476.548 429C467.503 429 458.841 427.251 450.564 423.752C442.287 420.339 434.905 415.56 428.42 409.416C421.935 403.272 416.815 396.147 413.06 388.04L448.132 372.168C449.924 376.008 452.271 379.251 455.172 381.896C458.073 384.627 461.359 386.717 465.028 388.168C468.697 389.619 472.537 390.344 476.548 390.344C480.985 390.344 485.252 389.875 489.348 388.936C493.444 387.997 497.113 386.547 500.356 384.584C503.599 382.621 506.159 380.104 508.036 377.032C509.913 374.045 510.852 370.461 510.852 366.28V353.736C507.012 358.088 502.447 361.629 497.156 364.36C491.951 367.005 485.935 368.328 479.108 368.328C469.807 368.328 461.103 366.579 452.996 363.08C444.889 359.581 437.721 354.76 431.492 348.616C425.348 342.387 420.527 335.219 417.028 327.112C413.529 319.005 411.78 310.301 411.78 301C411.78 291.699 413.529 282.995 417.028 274.888C420.527 266.781 425.348 259.656 431.492 253.512C437.721 247.283 444.889 242.419 452.996 238.92C461.103 235.421 469.807 233.672 479.108 233.672C485.935 233.672 491.951 235.037 497.156 237.768C502.447 240.413 507.012 243.912 510.852 248.264V237ZM479.62 331.464C484.911 331.464 489.732 330.099 494.084 327.368C498.436 324.637 501.892 320.968 504.452 316.36C507.012 311.752 508.292 306.632 508.292 301C508.292 295.368 507.012 290.248 504.452 285.64C501.892 281.032 498.436 277.363 494.084 274.632C489.732 271.901 484.911 270.536 479.62 270.536C474.415 270.536 469.636 271.901 465.284 274.632C461.017 277.363 457.604 281.032 455.044 285.64C452.484 290.248 451.204 295.368 451.204 301C451.204 306.632 452.484 311.752 455.044 316.36C457.604 320.968 461.017 324.637 465.284 327.368C469.636 330.099 474.415 331.464 479.62 331.464ZM619.73 368.328C607.954 368.328 597.202 365.299 587.474 359.24C577.831 353.181 570.109 345.032 564.306 334.792C558.589 324.552 555.73 313.245 555.73 300.872C555.73 291.571 557.394 282.867 560.722 274.76C564.05 266.568 568.615 259.4 574.418 253.256C580.306 247.027 587.133 242.163 594.898 238.664C602.663 235.165 610.941 233.416 619.73 233.416C629.97 233.416 639.314 235.677 647.762 240.2C656.295 244.637 663.463 250.696 669.266 258.376C675.154 265.971 679.335 274.547 681.81 284.104C684.285 293.661 684.541 303.517 682.578 313.672H597.202C598.397 316.659 599.975 319.389 601.938 321.864C603.986 324.253 606.461 326.173 609.362 327.624C612.349 329.075 615.805 329.843 619.73 329.928C623.485 330.013 626.941 329.203 630.098 327.496C633.341 325.789 636.157 323.485 638.546 320.584L677.714 329.672C672.509 341.021 664.743 350.323 654.418 357.576C644.093 364.744 632.53 368.328 619.73 368.328ZM595.794 285.512H643.794C642.599 281.843 640.807 278.6 638.418 275.784C636.029 272.968 633.213 270.749 629.97 269.128C626.813 267.507 623.399 266.696 619.73 266.696C616.146 266.696 612.733 267.507 609.49 269.128C606.333 270.749 603.559 272.968 601.17 275.784C598.866 278.6 597.074 281.843 595.794 285.512ZM690.238 365L690.11 237H728.51L728.638 245.064C732.905 241.395 737.769 238.536 743.23 236.488C748.691 234.44 754.451 233.416 760.51 233.416C765.118 233.416 769.811 234.099 774.59 235.464L759.486 274.376C756.499 273.011 753.427 272.328 750.27 272.328C746.259 272.328 742.59 273.309 739.262 275.272C736.019 277.149 733.417 279.752 731.454 283.08C729.577 286.323 728.638 289.949 728.638 293.96V365H690.238Z" fill="#101010"/>
</svg>
