<svg width="811" height="433" viewBox="0 0 811 433" fill="none" xmlns="http://www.w3.org/2000/svg">
<g clip-path="url(#clip0_1_2)">
<path d="M15.36 182L50.176 2.79999H82.944L123.136 108.528L163.328 2.79999H196.096L230.912 182H191.744L173.056 85.232L136.448 182H109.824L73.216 85.232L54.528 182H15.36ZM151.04 187.8V226.2H99.84V367H61.44V226.2H10.24V187.8H151.04ZM236.714 239H275.114V367H236.586L234.794 355.48C231.637 359.917 227.626 363.501 222.762 366.232C217.983 368.963 212.394 370.328 205.994 370.328C196.437 370.328 187.477 368.536 179.114 364.952C170.837 361.368 163.541 356.419 157.226 350.104C150.911 343.704 145.962 336.365 142.378 328.088C138.879 319.725 137.13 310.765 137.13 301.208C137.13 292.077 138.794 283.544 142.122 275.608C145.45 267.672 150.101 260.717 156.074 254.744C162.133 248.685 169.087 243.949 176.938 240.536C184.874 237.123 193.365 235.416 202.41 235.416C209.749 235.416 216.405 236.952 222.378 240.024C228.437 243.011 233.813 246.765 238.506 251.288L236.714 239ZM204.97 333.464C210.261 333.464 215.082 332.099 219.434 329.368C223.786 326.637 227.242 322.968 229.802 318.36C232.362 313.752 233.642 308.632 233.642 303C233.642 297.368 232.362 292.248 229.802 287.64C227.242 283.032 223.786 279.363 219.434 276.632C215.082 273.901 210.261 272.536 204.97 272.536C199.679 272.536 194.858 273.901 190.506 276.632C186.239 279.363 182.826 283.032 180.266 287.64C177.791 292.248 176.554 297.368 176.554 303C176.554 308.632 177.834 313.752 180.394 318.36C182.954 322.968 186.367 326.637 190.634 329.368C194.986 332.099 199.765 333.464 204.97 333.464ZM376.902 239H415.302V368.28C415.302 378.008 413.339 386.712 409.414 394.392C405.574 402.157 400.283 408.771 393.542 414.232C386.801 419.693 379.035 423.832 370.246 426.648C361.542 429.549 352.326 431 342.598 431C333.553 431 324.891 429.251 316.614 425.752C308.337 422.339 300.955 417.56 294.47 411.416C287.985 405.272 282.865 398.147 279.11 390.04L314.182 374.168C315.974 378.008 318.321 381.251 321.222 383.896C324.123 386.627 327.409 388.717 331.078 390.168C334.747 391.619 338.587 392.344 342.598 392.344C347.035 392.344 351.302 391.875 355.398 390.936C359.494 389.997 363.163 388.547 366.406 386.584C369.649 384.621 372.209 382.104 374.086 379.032C375.963 376.045 376.902 372.461 376.902 368.28V355.736C373.062 360.088 368.497 363.629 363.206 366.36C358.001 369.005 351.985 370.328 345.158 370.328C335.857 370.328 327.153 368.579 319.046 365.08C310.939 361.581 303.771 356.76 297.542 350.616C291.398 344.387 286.577 337.219 283.078 329.112C279.579 321.005 277.83 312.301 277.83 303C277.83 293.699 279.579 284.995 283.078 276.888C286.577 268.781 291.398 261.656 297.542 255.512C303.771 249.283 310.939 244.419 319.046 240.92C327.153 237.421 335.857 235.672 345.158 235.672C351.985 235.672 358.001 237.037 363.206 239.768C368.497 242.413 373.062 245.912 376.902 250.264V239ZM345.67 333.464C350.961 333.464 355.782 332.099 360.134 329.368C364.486 326.637 367.942 322.968 370.502 318.36C373.062 313.752 374.342 308.632 374.342 303C374.342 297.368 373.062 292.248 370.502 287.64C367.942 283.032 364.486 279.363 360.134 276.632C355.782 273.901 350.961 272.536 345.67 272.536C340.465 272.536 335.686 273.901 331.334 276.632C327.067 279.363 323.654 283.032 321.094 287.64C318.534 292.248 317.254 297.368 317.254 303C317.254 308.632 318.534 313.752 321.094 318.36C323.654 322.968 327.067 326.637 331.334 329.368C335.686 332.099 340.465 333.464 345.67 333.464Z" fill="#5C9EAD"/>
<path d="M243.69 135.536V54H282.09V124.784C282.09 128.795 283.071 132.464 285.034 135.792C286.997 139.035 289.599 141.637 292.842 143.6C296.17 145.477 299.797 146.416 303.722 146.416C307.733 146.416 311.359 145.477 314.602 143.6C317.93 141.637 320.533 139.035 322.41 135.792C324.373 132.464 325.354 128.795 325.354 124.784V54H363.754L363.882 182H325.482L325.354 173.68C321.087 177.349 316.223 180.208 310.762 182.256C305.301 184.304 299.541 185.328 293.482 185.328C284.351 185.328 275.989 183.109 268.394 178.672C260.885 174.149 254.869 168.133 250.346 160.624C245.909 153.115 243.69 144.752 243.69 135.536ZM413.624 184.304C407.139 183.707 400.909 182.299 394.936 180.08C388.963 177.861 383.629 174.832 378.936 170.992C374.243 167.152 370.531 162.459 367.8 156.912L400.056 143.088C400.909 144.027 402.104 145.221 403.64 146.672C405.176 148.037 407.096 149.275 409.4 150.384C411.789 151.493 414.648 152.048 417.976 152.048C420.195 152.048 422.328 151.835 424.376 151.408C426.509 150.896 428.216 150.043 429.496 148.848C430.861 147.653 431.544 145.989 431.544 143.856C431.544 141.467 430.648 139.675 428.856 138.48C427.149 137.2 425.059 136.304 422.584 135.792C420.109 135.195 417.805 134.725 415.672 134.384C408.077 133.189 400.781 130.8 393.784 127.216C386.872 123.547 381.197 118.811 376.76 113.008C372.323 107.12 370.104 100.251 370.104 92.4C370.104 83.6107 372.365 76.016 376.888 69.616C381.411 63.216 387.299 58.3093 394.552 54.896C401.891 51.3973 409.784 49.648 418.232 49.648C428.216 49.648 437.432 51.696 445.88 55.792C454.413 59.888 461.411 65.776 466.872 73.456L436.664 91.376C435.64 90.096 434.36 88.816 432.824 87.536C431.373 86.1707 429.667 85.0187 427.704 84.08C425.827 83.056 423.779 82.416 421.56 82.16C418.573 81.904 415.885 82.032 413.496 82.544C411.192 82.9707 409.357 83.9093 407.992 85.36C406.627 86.7253 405.944 88.7307 405.944 91.376C405.944 93.8507 407.139 95.6427 409.528 96.752C411.917 97.8613 414.605 98.672 417.592 99.184C420.579 99.696 423.011 100.251 424.888 100.848C432.227 103.237 439.139 106.352 445.624 110.192C452.109 114.032 457.315 118.683 461.24 124.144C465.251 129.605 467.128 136.005 466.872 143.344C466.872 151.877 464.312 159.387 459.192 165.872C454.072 172.357 447.459 177.264 439.352 180.592C431.245 183.92 422.669 185.157 413.624 184.304ZM471.96 54H510.36V182H471.96V54ZM491.416 40.688C485.869 40.688 481.219 38.8533 477.464 35.184C473.709 31.5147 471.832 26.9493 471.832 21.488C471.832 16.112 473.709 11.5893 477.464 7.92C481.219 4.16533 485.827 2.28799 491.288 2.28799C496.664 2.28799 501.187 4.16533 504.856 7.92C508.611 11.5893 510.488 16.112 510.488 21.488C510.488 26.9493 508.653 31.5147 504.984 35.184C501.4 38.8533 496.877 40.688 491.416 40.688ZM597.37 140.016L631.93 158.704C626.042 166.725 618.661 173.168 609.786 178.032C600.911 182.896 591.226 185.328 580.73 185.328C568.954 185.328 558.202 182.299 548.474 176.24C538.831 170.181 531.109 162.075 525.306 151.92C519.589 141.68 516.73 130.373 516.73 118C516.73 108.613 518.394 99.8667 521.722 91.76C525.05 83.568 529.615 76.4 535.418 70.256C541.306 64.0267 548.133 59.1627 555.898 55.664C563.663 52.1653 571.941 50.416 580.73 50.416C591.226 50.416 600.911 52.848 609.786 57.712C618.661 62.576 626.042 69.104 631.93 77.296L597.37 95.984C595.066 93.68 592.463 91.9307 589.562 90.736C586.746 89.456 583.802 88.816 580.73 88.816C575.866 88.816 571.514 90.1813 567.674 92.912C563.834 95.6427 560.762 99.2267 558.458 103.664C556.239 108.101 555.13 112.88 555.13 118C555.13 123.035 556.239 127.771 558.458 132.208C560.762 136.56 563.834 140.101 567.674 142.832C571.514 145.563 575.866 146.928 580.73 146.928C583.802 146.928 586.746 146.331 589.562 145.136C592.463 143.856 595.066 142.149 597.37 140.016ZM524.602 239H563.002V368.28C563.002 378.008 561.039 386.712 557.114 394.392C553.274 402.157 547.983 408.771 541.242 414.232C534.501 419.693 526.735 423.832 517.946 426.648C509.242 429.549 500.026 431 490.298 431C481.253 431 472.591 429.251 464.314 425.752C456.037 422.339 448.655 417.56 442.17 411.416C435.685 405.272 430.565 398.147 426.81 390.04L461.882 374.168C463.674 378.008 466.021 381.251 468.922 383.896C471.823 386.627 475.109 388.717 478.778 390.168C482.447 391.619 486.287 392.344 490.298 392.344C494.735 392.344 499.002 391.875 503.098 390.936C507.194 389.997 510.863 388.547 514.106 386.584C517.349 384.621 519.909 382.104 521.786 379.032C523.663 376.045 524.602 372.461 524.602 368.28V355.736C520.762 360.088 516.197 363.629 510.906 366.36C505.701 369.005 499.685 370.328 492.858 370.328C483.557 370.328 474.853 368.579 466.746 365.08C458.639 361.581 451.471 356.76 445.242 350.616C439.098 344.387 434.277 337.219 430.778 329.112C427.279 321.005 425.53 312.301 425.53 303C425.53 293.699 427.279 284.995 430.778 276.888C434.277 268.781 439.098 261.656 445.242 255.512C451.471 249.283 458.639 244.419 466.746 240.92C474.853 237.421 483.557 235.672 492.858 235.672C499.685 235.672 505.701 237.037 510.906 239.768C516.197 242.413 520.762 245.912 524.602 250.264V239ZM493.37 333.464C498.661 333.464 503.482 332.099 507.834 329.368C512.186 326.637 515.642 322.968 518.202 318.36C520.762 313.752 522.042 308.632 522.042 303C522.042 297.368 520.762 292.248 518.202 287.64C515.642 283.032 512.186 279.363 507.834 276.632C503.482 273.901 498.661 272.536 493.37 272.536C488.165 272.536 483.386 273.901 479.034 276.632C474.767 279.363 471.354 283.032 468.794 287.64C466.234 292.248 464.954 297.368 464.954 303C464.954 308.632 466.234 313.752 468.794 318.36C471.354 322.968 474.767 326.637 479.034 329.368C483.386 332.099 488.165 333.464 493.37 333.464ZM633.48 370.328C621.704 370.328 610.952 367.299 601.224 361.24C591.581 355.181 583.859 347.032 578.056 336.792C572.339 326.552 569.48 315.245 569.48 302.872C569.48 293.571 571.144 284.867 574.472 276.76C577.8 268.568 582.365 261.4 588.168 255.256C594.056 249.027 600.883 244.163 608.648 240.664C616.413 237.165 624.691 235.416 633.48 235.416C643.72 235.416 653.064 237.677 661.512 242.2C670.045 246.637 677.213 252.696 683.016 260.376C688.904 267.971 693.085 276.547 695.56 286.104C698.035 295.661 698.291 305.517 696.328 315.672H610.952C612.147 318.659 613.725 321.389 615.688 323.864C617.736 326.253 620.211 328.173 623.112 329.624C626.099 331.075 629.555 331.843 633.48 331.928C637.235 332.013 640.691 331.203 643.848 329.496C647.091 327.789 649.907 325.485 652.296 322.584L691.464 331.672C686.259 343.021 678.493 352.323 668.168 359.576C657.843 366.744 646.28 370.328 633.48 370.328ZM609.544 287.512H657.544C656.349 283.843 654.557 280.6 652.168 277.784C649.779 274.968 646.963 272.749 643.72 271.128C640.563 269.507 637.149 268.696 633.48 268.696C629.896 268.696 626.483 269.507 623.24 271.128C620.083 272.749 617.309 274.968 614.92 277.784C612.616 280.6 610.824 283.843 609.544 287.512ZM703.988 367L703.86 239H742.26L742.388 247.064C746.655 243.395 751.519 240.536 756.98 238.488C762.441 236.44 768.201 235.416 774.26 235.416C778.868 235.416 783.561 236.099 788.34 237.464L773.236 276.376C770.249 275.011 767.177 274.328 764.02 274.328C760.009 274.328 756.34 275.309 753.012 277.272C749.769 279.149 747.167 281.752 745.204 285.08C743.327 288.323 742.388 291.949 742.388 295.96V367H703.988Z" fill="#101010"/>
</g>
<defs>
<clipPath id="clip0_1_2">
<rect width="811" height="433" fill="white"/>
</clipPath>
</defs>
</svg>
